<!DOCTYPE svg PUBLIC "-//W3C//DTD SVG 1.1//EN" "http://www.w3.org/Graphics/SVG/1.1/DTD/svg11.dtd">
<!-- Uploaded to: SVG Repo, www.svgrepo.com, Transformed by: SVG Repo Mixer Tools -->
<svg fill="#000000" width="800px" height="800px" viewBox="0 0 24 24" id="note-book" data-name="Flat Color" xmlns="http://www.w3.org/2000/svg" class="icon flat-color">
<g id="SVGRepo_bgCarrier" stroke-width="0"/>
<g id="SVGRepo_tracerCarrier" stroke-linecap="round" stroke-linejoin="round"/>
<g id="SVGRepo_iconCarrier">
<rect id="primary" x="3" y="2" width="19" height="20" rx="2" style="fill: #ffffff;"/>
<path id="secondary" d="M5,17H3a1,1,0,0,1,0-2H5a1,1,0,0,1,0,2Zm0-4H3a1,1,0,0,1,0-2H5a1,1,0,0,1,0,2ZM5,9H3A1,1,0,0,1,3,7H5A1,1,0,0,1,5,9ZM17,7H10A1,1,0,0,0,9,8v2a1,1,0,0,0,1,1h7a1,1,0,0,0,1-1V8A1,1,0,0,0,17,7Z" style="fill: #2ca9bc;"/>
</g>
</svg>